Coordinates
version=1
nRows=24
nColumns=38
inDegrees=no

Units are S.I. units (second, meters, Newtons, ...)
If the header above contains a line with 'inDegrees', this indicates whether rotational values are in degrees (yes) or radians (no).

endheader
time	pelvis_tilt	pelvis_list	pelvis_rotation	pelvis_tx	pelvis_ty	pelvis_tz	hip_flexion_r	hip_adduction_r	hip_rotation_r	knee_angle_r	ankle_angle_r	subtalar_angle_r	mtp_angle_r	hip_flexion_l	hip_adduction_l	hip_rotation_l	knee_angle_l	ankle_angle_l	subtalar_angle_l	mtp_angle_l	lumbar_extension	lumbar_bending	lumbar_rotation	arm_flex_r	arm_add_r	arm_rot_r	elbow_flex_r	pro_sup_r	wrist_flex_r	wrist_dev_r	arm_flex_l	arm_add_l	arm_rot_l	elbow_flex_l	pro_sup_l	wrist_flex_l	wrist_dev_l
0.99	-2.31163	1.54991	0.846999	0.795123	1.31216	0.92633	0.373445	-0.0738835	-0.0760246	0.0718309	-0.34003	0	0	-0.2205	-0.0133522	-0.154665	0.287052	-0.114935	0	0	-0.113987	0.0867912	-0.150266	-0.0453213	-0.301657	0.255102	0.780492	1.5708	0	0	0.0988385	-0.255283	0.214368	0.952255	1.5708	0	0
1	-2.256	1.55032	0.791614	0.794619	1.30279	0.925277	0.387196	-0.0725569	-0.0967252	0.116141	-0.326968	0	0	-0.228699	-0.0164484	-0.155886	0.294558	-0.112405	0	0	-0.115009	0.0891106	-0.152783	-0.0444775	-0.302853	0.258782	0.779229	1.5708	0	0	0.0936438	-0.250557	0.206762	0.954869	1.5708	0	0
1.01	-2.18986	1.55036	0.726351	0.79418	1.29327	0.924392	0.401439	-0.0708517	-0.115884	0.166556	-0.318236	0	0	-0.236512	-0.0199706	-0.156542	0.302418	-0.110966	0	0	-0.115684	0.091925	-0.156518	-0.0431445	-0.304053	0.262964	0.777365	1.5708	0	0	0.0871306	-0.245064	0.19785	0.956459	1.5708	0	0
1.02	-2.11265	1.54986	0.650739	0.793756	1.28356	0.923686	0.411571	-0.0680036	-0.126529	0.211337	-0.314831	0	0	-0.244127	-0.0242342	-0.156425	0.310402	-0.1109	0	0	-0.115669	0.095253	-0.161251	-0.0415191	-0.305049	0.267469	0.774474	1.5708	0	0	0.0796614	-0.239765	0.189875	0.956437	1.5708	0	0
1.03	-1.91	1.54921	0.450314	0.793226	1.27361	0.923373	0.409274	-0.0618408	-0.123956	0.234929	-0.325038	0	0	-0.254581	-0.0305184	-0.157058	0.317699	-0.112638	0	0	-0.117523	0.0998042	-0.163668	-0.0410824	-0.30873	0.276073	0.773126	1.55825	0	0	0.0749425	-0.236478	0.190914	0.95258	1.5708	0	0
1.04	-1.80083	1.54778	0.344361	0.792717	1.26337	0.923019	0.41161	-0.0582754	-0.130114	0.268206	-0.318825	0	0	-0.262768	-0.0366545	-0.15737	0.326253	-0.115132	0	0	-0.117499	0.103566	-0.167506	-0.0436816	-0.305598	0.266937	0.770463	1.56892	0	0	0.0674436	-0.233193	0.190131	0.949677	1.5708	0	0
1.05	-1.7046	1.54555	0.252342	0.792201	1.25281	0.922848	0.411738	-0.0548642	-0.139229	0.294284	-0.316202	0	0	-0.270373	-0.0438749	-0.157776	0.335666	-0.118628	0	0	-0.116131	0.108419	-0.172185	-0.0471987	-0.303706	0.259811	0.768857	1.5708	0	0	0.0601	-0.226877	0.186179	0.943902	1.5708	0	0
1.06	-1.6435	1.5431	0.196455	0.791731	1.24198	0.92277	0.413741	-0.0537465	-0.156372	0.322456	-0.319373	0	0	-0.276458	-0.0514604	-0.157702	0.346935	-0.123302	0	0	-0.113315	0.113226	-0.178045	-0.0511871	-0.303053	0.256119	0.767803	1.5708	0	0	0.0510554	-0.220756	0.182032	0.937437	1.5708	0	0
1.07	-1.6079	1.54067	0.166689	0.791196	1.23088	0.922799	0.415486	-0.0539808	-0.177572	0.348834	-0.331344	0	0	-0.280962	-0.0593593	-0.156533	0.360231	-0.128924	0	0	-0.109267	0.117403	-0.18513	-0.0550993	-0.301545	0.251905	0.765961	1.5708	0	0	0.0400561	-0.216052	0.179074	0.930856	1.5708	0	0
1.08	-1.5689	1.53804	0.133646	0.790546	1.21954	0.923012	0.415063	-0.054264	-0.201449	0.372975	-0.347174	0	0	-0.2843	-0.0680202	-0.154904	0.376252	-0.135812	0	0	-0.104895	0.121365	-0.192316	-0.0594708	-0.300061	0.248564	0.763975	1.5708	0	0	0.0281003	-0.211915	0.177101	0.923504	1.5708	0	0
1.09	-1.55257	1.53494	0.123105	0.789836	1.20795	0.923335	0.414732	-0.0547803	-0.229629	0.399728	-0.35704	0	0	-0.285549	-0.0772898	-0.151933	0.394856	-0.144368	0	0	-0.0945906	0.125143	-0.207263	-0.0447178	-0.326442	0.337851	0.758943	1.4571	0	0	0.0112796	-0.210232	0.174244	0.912809	1.5708	0	0
1.1	-1.58221	1.53151	0.157906	0.788923	1.19619	0.923781	0.415818	-0.0554874	-0.257753	0.429353	-0.353359	0	0	-0.282916	-0.0865662	-0.145758	0.416983	-0.154515	0	0	-0.0905584	0.129373	-0.200548	-0.0752231	-0.294654	0.228588	0.762008	1.5708	0	0	0.00690522	-0.206129	0.187252	0.900075	1.5708	0	0
1.11	-1.57665	1.52721	0.154471	0.787696	1.1845	0.924514	0.414732	-0.0534042	-0.278357	0.457447	-0.344602	0	0	-0.279878	-0.0962974	-0.139566	0.442547	-0.164942	0	0	-0.0840434	0.134286	-0.20165	-0.0820873	-0.293122	0.221859	0.76113	1.5708	0	0	-0.00334434	-0.202191	0.191062	0.886202	1.5708	0	0
1.12	-1.57643	1.52287	0.15373	0.786187	1.17289	0.925369	0.415868	-0.0513291	-0.296128	0.491184	-0.32934	0	0	-0.274337	-0.105418	-0.13278	0.472705	-0.17729	0	0	-0.0776973	0.138553	-0.199346	-0.0885882	-0.292283	0.21722	0.760104	1.5708	0	0	-0.0128193	-0.20061	0.200445	0.871094	1.5708	0	0
1.13	-1.57134	1.51734	0.145913	0.784354	1.16138	0.926504	0.413977	-0.045035	-0.305641	0.51602	-0.318171	0	0	-0.266052	-0.115646	-0.126237	0.508268	-0.191283	0	0	-0.0720312	0.144232	-0.195834	-0.0929376	-0.292539	0.216919	0.758483	1.5708	0	0	-0.0221395	-0.198464	0.208255	0.854815	1.5708	0	0
1.14	-1.56248	1.51063	0.13267	0.782208	1.15001	0.927919	0.406782	-0.0332399	-0.305746	0.526582	-0.310331	0	0	-0.254827	-0.127086	-0.119983	0.549219	-0.207432	0	0	-0.0670211	0.151208	-0.190938	-0.0953585	-0.29489	0.222497	0.757387	1.56403	0	0	-0.0308889	-0.195966	0.215093	0.837091	1.5708	0	0
1.15	-1.55186	1.50387	0.116728	0.779852	1.13879	0.929438	0.396724	-0.0204087	-0.30586	0.531419	-0.303911	0	0	-0.240585	-0.138963	-0.113809	0.595912	-0.224987	0	0	-0.0625808	0.157965	-0.185391	-0.0967102	-0.298632	0.232268	0.757615	1.54849	0	0	-0.0397192	-0.19445	0.222938	0.81984	1.5708	0	0
1.16	-1.52718	1.49747	0.0865076	0.77738	1.12777	0.931051	0.382014	-0.00720357	-0.306965	0.529287	-0.299495	0	0	-0.224282	-0.15078	-0.10652	0.647836	-0.24023	0	0	-0.0622796	0.164176	-0.183188	-0.0970495	-0.293718	0.22292	0.756713	1.5708	0	0	-0.0538441	-0.191868	0.21699	0.810821	1.5708	0	0
1.17	-1.53744	1.49139	0.0905916	0.774809	1.11687	0.932371	0.366985	0.00618979	-0.307143	0.52082	-0.293528	0	0	-0.202004	-0.162285	-0.0990819	0.704961	-0.258348	0	0	-0.057701	0.169859	-0.173526	-0.102742	-0.295762	0.222601	0.762085	1.5708	0	0	-0.0601764	-0.192116	0.22851	0.795232	1.5708	0	0
1.18	-1.55417	1.48641	0.100613	0.772171	1.10623	0.933472	0.351506	0.0184759	-0.307395	0.509469	-0.288515	0	0	-0.176308	-0.172543	-0.0919624	0.765122	-0.27748	0	0	-0.0530585	0.174525	-0.16412	-0.107597	-0.298493	0.223525	0.769428	1.5708	0	0	-0.0674919	-0.192763	0.237164	0.782413	1.5708	0	0
1.19	-1.57274	1.48263	0.11189	0.769489	1.09597	0.934294	0.337035	0.0292088	-0.307488	0.498822	-0.283727	0	0	-0.148036	-0.181418	-0.0863235	0.827382	-0.295181	0	0	-0.049149	0.17709	-0.154235	-0.111072	-0.300824	0.22461	0.777246	1.5708	0	0	-0.0761696	-0.197767	0.250356	0.774238	1.5708	0	0
1.2	-1.61717	1.47884	0.149617	0.767002	1.08591	0.934721	0.325866	0.0392742	-0.306815	0.488733	-0.277774	0	0	-0.115179	-0.189708	-0.080433	0.891453	-0.308517	0	0	-0.0371009	0.179358	-0.153315	-0.0929375	-0.338454	0.332789	0.784372	1.43806	0	0	-0.0874015	-0.203801	0.264134	0.763599	1.5708	0	0
1.21	-1.66117	1.47592	0.18878	0.764776	1.0761	0.935106	0.315134	0.0476419	-0.306067	0.479031	-0.2721	0	0	-0.0806326	-0.196588	-0.0728426	0.955741	-0.316264	0	0	-0.0359592	0.181919	-0.133167	-0.121662	-0.308198	0.224097	0.799292	1.5708	0	0	-0.0873041	-0.205616	0.279141	0.756562	1.5708	0	0
1.22	-1.66862	1.4739	0.192766	0.762861	1.06663	0.935746	0.301015	0.0549801	-0.306541	0.469756	-0.26706	0	0	-0.0490967	-0.202928	-0.0659089	1.01919	-0.321619	0	0	-0.0350108	0.184065	-0.129121	-0.120258	-0.311939	0.228154	0.808914	1.5708	0	0	-0.0952813	-0.206061	0.277668	0.752846	1.5708	0	0
